<?xml version="1.0" encoding="UTF-8"?>
<svg xmlns="http://www.w3.org/2000/svg" xmlns:xlink="http://www.w3.org/1999/xlink" width="24px" height="24px" viewBox="0 0 24 25" version="1.1">
<g id="surface1">
<path style=" stroke:none;fill-rule:evenodd;fill:rgb(18.431373%,50.196078%,92.941176%);fill-opacity:1;" d="M 19.039062 1.015625 L 9.199219 1.015625 C 8.117188 1.015625 7.242188 1.925781 7.242188 3.042969 L 17.074219 3.042969 C 18.152344 3.042969 19.039062 3.953125 19.039062 5.070312 L 19.039062 18.25 L 21.003906 19.265625 L 21.003906 3.042969 C 21.003906 1.925781 20.121094 1.015625 19.039062 1.015625 Z M 15.105469 7.097656 L 15.105469 20.25 L 10.96875 18.414062 L 10.191406 18.070312 L 9.414062 18.414062 L 5.277344 20.25 L 5.277344 7.097656 Z M 5.277344 5.070312 L 15.105469 5.070312 C 16.1875 5.070312 17.074219 5.980469 17.074219 7.097656 L 17.074219 23.320312 L 10.191406 20.277344 L 3.3125 23.320312 L 3.3125 7.097656 C 3.3125 5.980469 4.195312 5.070312 5.277344 5.070312 Z M 5.277344 5.070312 "/>
</g>
</svg>
