<?xml version="1.0" encoding="UTF-8"?>
<svg xmlns="http://www.w3.org/2000/svg" xmlns:xlink="http://www.w3.org/1999/xlink" width="24px" height="24px" viewBox="0 0 24 24" version="1.1">
<g id="surface1">
<path style=" stroke:none;fill-rule:evenodd;fill:#4F4F4F;fill-opacity:1;" d="M 20 3 L 19 3 L 19 1 L 17 1 L 17 3 L 7 3 L 7 1 L 5 1 L 5 3 L 4 3 C 2.898438 3 2 3.898438 2 5 L 2 21 C 2 22.101562 2.898438 23 4 23 L 20 23 C 21.097656 23 22 22.101562 22 21 L 22 5 C 22 3.898438 21.097656 3 20 3 Z M 20 21 L 4 21 L 4 10 L 20 10 Z M 4 8 L 20 8 L 20 5 L 4 5 Z M 4 8 "/>
</g>
</svg>
