<?xml version="1.0" encoding="UTF-8"?>
<svg xmlns="http://www.w3.org/2000/svg" xmlns:xlink="http://www.w3.org/1999/xlink" width="24px" height="24px" viewBox="0 0 24 23" version="1.1">
<g id="surface1">
<path style=" stroke:none;fill-rule:evenodd;fill:rgb(94.901961%,94.901961%,94.901961%);fill-opacity:1;" d="M 16.675781 6.0625 L 19.503906 6.0625 C 20.550781 6.0625 21.390625 6.894531 21.390625 7.929688 L 21.390625 18.191406 C 21.390625 19.226562 20.550781 20.054688 19.503906 20.054688 L 4.417969 20.054688 C 3.371094 20.054688 2.53125 19.226562 2.53125 18.191406 L 2.53125 7.929688 C 2.53125 6.894531 3.371094 6.0625 4.417969 6.0625 L 7.246094 6.0625 L 7.246094 4.199219 C 7.246094 3.164062 8.085938 2.332031 9.132812 2.332031 L 14.789062 2.332031 C 15.835938 2.332031 16.675781 3.164062 16.675781 4.199219 Z M 14.789062 4.199219 L 9.132812 4.199219 L 9.132812 6.0625 L 14.789062 6.0625 Z M 19.503906 18.191406 L 4.417969 18.191406 L 4.417969 16.324219 L 19.503906 16.324219 Z M 4.417969 13.527344 L 19.503906 13.527344 L 19.503906 7.929688 L 16.675781 7.929688 L 16.675781 9.792969 L 14.789062 9.792969 L 14.789062 7.929688 L 9.132812 7.929688 L 9.132812 9.792969 L 7.246094 9.792969 L 7.246094 7.929688 L 4.417969 7.929688 Z M 4.417969 13.527344 "/>
</g>
</svg>
