<?xml version="1.0" encoding="UTF-8"?>
<svg xmlns="http://www.w3.org/2000/svg" xmlns:xlink="http://www.w3.org/1999/xlink" width="24px" height="24px" viewBox="0 0 24 24" version="1.1">
<g id="surface1">
<path style=" stroke:none;fill-rule:evenodd;fill:rgb(97.254902%,71.764706%,41.960784%);fill-opacity:1;" d="M 3.042969 3.40625 L 20.5625 3.40625 C 21.632812 3.40625 22.511719 4.28125 22.511719 5.355469 L 22.511719 18.007812 C 22.511719 19.078125 21.632812 19.953125 20.5625 19.953125 L 3.042969 19.953125 C 1.972656 19.953125 1.09375 19.078125 1.09375 18.007812 L 1.09375 5.355469 C 1.09375 4.28125 1.972656 3.40625 3.042969 3.40625 Z M 3.042969 5.355469 L 3.042969 18.007812 L 10.828125 18.007812 L 10.828125 5.355469 Z M 20.5625 18.007812 L 12.777344 18.007812 L 12.777344 5.355469 L 20.5625 5.355469 Z M 19.589844 8.761719 L 13.75 8.761719 L 13.75 10.222656 L 19.589844 10.222656 Z M 13.75 11.195312 L 19.589844 11.195312 L 19.589844 12.652344 L 13.75 12.652344 Z M 19.589844 13.628906 L 13.75 13.628906 L 13.75 15.085938 L 19.589844 15.085938 Z M 19.589844 13.628906 "/>
</g>
</svg>
