<?xml version="1.0" encoding="UTF-8"?>
<svg xmlns="http://www.w3.org/2000/svg" xmlns:xlink="http://www.w3.org/1999/xlink" width="24px" height="24px" viewBox="0 0 24 23" version="1.1">
<g id="surface1">
<path style=" stroke:none;fill-rule:evenodd;fill:rgb(100%,100%,100%);fill-opacity:1;" d="M 3.527344 3.265625 L 20.5 3.265625 C 21.539062 3.265625 22.386719 4.105469 22.386719 5.128906 L 22.386719 17.257812 C 22.386719 18.285156 21.539062 19.125 20.5 19.125 L 3.527344 19.125 C 2.488281 19.125 1.640625 18.285156 1.640625 17.257812 L 1.640625 5.128906 C 1.640625 4.105469 2.488281 3.265625 3.527344 3.265625 Z M 3.527344 5.128906 L 3.527344 17.257812 L 11.070312 17.257812 L 11.070312 5.128906 Z M 20.5 17.257812 L 12.957031 17.257812 L 12.957031 5.128906 L 20.5 5.128906 Z M 19.558594 8.394531 L 13.898438 8.394531 L 13.898438 9.792969 L 19.558594 9.792969 Z M 13.898438 10.726562 L 19.558594 10.726562 L 19.558594 12.128906 L 13.898438 12.128906 Z M 19.558594 13.058594 L 13.898438 13.058594 L 13.898438 14.460938 L 19.558594 14.460938 Z M 19.558594 13.058594 "/>
</g>
</svg>
