<?xml version="1.0" encoding="UTF-8"?>
<svg xmlns="http://www.w3.org/2000/svg" xmlns:xlink="http://www.w3.org/1999/xlink" width="24px" height="24px" viewBox="0 0 24 24" version="1.1">
<g id="surface1">
<path style=" stroke:none;fill-rule:evenodd;fill:rgb(100%,100%,100%);fill-opacity:1;" d="M 13.476562 5.285156 C 13.871094 5.550781 13.976562 6.082031 13.714844 6.476562 L 10.601562 11.144531 L 15 11.144531 C 15.316406 11.144531 15.605469 11.316406 15.753906 11.59375 C 15.90625 11.875 15.886719 12.210938 15.714844 12.476562 L 11.714844 18.476562 C 11.449219 18.871094 10.917969 18.976562 10.523438 18.714844 C 10.128906 18.449219 10.023438 17.917969 10.285156 17.523438 L 13.398438 12.855469 L 9 12.855469 C 8.683594 12.855469 8.394531 12.683594 8.246094 12.40625 C 8.09375 12.125 8.113281 11.789062 8.285156 11.523438 L 12.285156 5.523438 C 12.550781 5.128906 13.082031 5.023438 13.476562 5.285156 Z M 13.476562 5.285156 "/>
</g>
</svg>
