<?xml version="1.0" encoding="UTF-8"?>
<svg xmlns="http://www.w3.org/2000/svg" xmlns:xlink="http://www.w3.org/1999/xlink" width="24px" height="24px" viewBox="0 0 24 24" version="1.1">
<g id="surface1">
<path style=" stroke:none;fill-rule:evenodd;fill:rgb(30.980392%,30.980392%,30.980392%);fill-opacity:1;" d="M 13.1875 5.230469 L 8.027344 5.230469 C 7.316406 5.230469 6.738281 5.808594 6.738281 6.519531 L 6.738281 16.84375 C 6.738281 17.550781 7.3125 18.132812 8.019531 18.132812 L 15.769531 18.132812 C 16.480469 18.132812 17.058594 17.550781 17.058594 16.84375 L 17.058594 9.101562 Z M 14.480469 11.679688 L 9.316406 11.679688 L 9.316406 12.972656 L 14.480469 12.972656 Z M 14.480469 14.261719 L 9.316406 14.261719 L 9.316406 15.550781 L 14.480469 15.550781 Z M 8.027344 16.84375 L 15.769531 16.84375 L 15.769531 9.746094 L 12.542969 9.746094 L 12.542969 6.519531 L 8.027344 6.519531 Z M 8.027344 16.84375 "/>
</g>
</svg>
