<?xml version="1.0" encoding="UTF-8"?>
<svg xmlns="http://www.w3.org/2000/svg" xmlns:xlink="http://www.w3.org/1999/xlink" width="24px" height="24px" viewBox="0 0 24 12" version="1.1">
<g id="surface1">
<path style=" stroke:none;fill-rule:evenodd;fill:rgb(18.431373%,50.196078%,92.941176%);fill-opacity:1;" d="M 10.476562 9.285156 L 5.835938 9.285156 C 3.921875 9.285156 2.355469 7.71875 2.355469 5.804688 C 2.355469 3.886719 3.921875 2.320312 5.835938 2.320312 L 10.476562 2.320312 L 10.476562 0 L 5.835938 0 C 2.632812 0 0.03125 2.601562 0.03125 5.804688 C 0.03125 9.007812 2.632812 11.605469 5.835938 11.605469 L 10.476562 11.605469 Z M 17.441406 0 L 12.800781 0 L 12.800781 2.320312 L 17.441406 2.320312 C 19.355469 2.320312 20.921875 3.886719 20.921875 5.804688 C 20.921875 7.71875 19.355469 9.285156 17.441406 9.285156 L 12.800781 9.285156 L 12.800781 11.605469 L 17.441406 11.605469 C 20.644531 11.605469 23.246094 9.007812 23.246094 5.804688 C 23.246094 2.601562 20.644531 0 17.441406 0 Z M 16.28125 4.640625 L 6.996094 4.640625 L 6.996094 6.964844 L 16.28125 6.964844 Z M 16.28125 4.640625 "/>
</g>
</svg>
