<?xml version="1.0" encoding="UTF-8"?>
<svg xmlns="http://www.w3.org/2000/svg" xmlns:xlink="http://www.w3.org/1999/xlink" width="24px" height="24px" viewBox="0 0 24 24" version="1.1">
<g id="surface1">
<path style=" stroke:none;fill-rule:nonzero;fill:rgb(74.117647%,74.117647%,74.117647%);fill-opacity:1;" d="M 3.304688 12.652344 L 5.210938 12.652344 L 5.210938 10.707031 L 3.304688 10.707031 Z M 3.304688 12.652344 "/>
<path style=" stroke:none;fill-rule:nonzero;fill:rgb(74.117647%,74.117647%,74.117647%);fill-opacity:1;" d="M 3.304688 16.546875 L 5.210938 16.546875 L 5.210938 14.601562 L 3.304688 14.601562 Z M 3.304688 16.546875 "/>
<path style=" stroke:none;fill-rule:nonzero;fill:rgb(74.117647%,74.117647%,74.117647%);fill-opacity:1;" d="M 3.304688 8.761719 L 5.210938 8.761719 L 5.210938 6.8125 L 3.304688 6.8125 Z M 3.304688 8.761719 "/>
<path style=" stroke:none;fill-rule:nonzero;fill:rgb(74.117647%,74.117647%,74.117647%);fill-opacity:1;" d="M 7.117188 12.652344 L 20.453125 12.652344 L 20.453125 10.707031 L 7.117188 10.707031 Z M 7.117188 12.652344 "/>
<path style=" stroke:none;fill-rule:nonzero;fill:rgb(74.117647%,74.117647%,74.117647%);fill-opacity:1;" d="M 7.117188 16.546875 L 20.453125 16.546875 L 20.453125 14.601562 L 7.117188 14.601562 Z M 7.117188 16.546875 "/>
<path style=" stroke:none;fill-rule:nonzero;fill:rgb(74.117647%,74.117647%,74.117647%);fill-opacity:1;" d="M 7.117188 6.8125 L 7.117188 8.761719 L 20.453125 8.761719 L 20.453125 6.8125 Z M 7.117188 6.8125 "/>
</g>
</svg>
