<?xml version="1.0" encoding="UTF-8"?>
<svg xmlns="http://www.w3.org/2000/svg" xmlns:xlink="http://www.w3.org/1999/xlink" width="24px" height="24px" viewBox="0 0 24 24" version="1.1">
<g id="surface1">
<path style=" stroke:none;fill-rule:evenodd;fill:rgb(30.980392%,30.980392%,30.980392%);fill-opacity:1;" d="M 5.988281 9.734375 C 4.917969 9.734375 4.042969 10.609375 4.042969 11.679688 C 4.042969 12.75 4.917969 13.628906 5.988281 13.628906 C 7.0625 13.628906 7.9375 12.75 7.9375 11.679688 C 7.9375 10.609375 7.0625 9.734375 5.988281 9.734375 Z M 17.671875 9.734375 C 16.601562 9.734375 15.722656 10.609375 15.722656 11.679688 C 15.722656 12.75 16.601562 13.628906 17.671875 13.628906 C 18.742188 13.628906 19.617188 12.75 19.617188 11.679688 C 19.617188 10.609375 18.742188 9.734375 17.671875 9.734375 Z M 9.882812 11.679688 C 9.882812 10.609375 10.757812 9.734375 11.832031 9.734375 C 12.902344 9.734375 13.777344 10.609375 13.777344 11.679688 C 13.777344 12.75 12.902344 13.628906 11.832031 13.628906 C 10.757812 13.628906 9.882812 12.75 9.882812 11.679688 Z M 9.882812 11.679688 "/>
</g>
</svg>
