<?xml version="1.0" encoding="UTF-8"?>
<svg xmlns="http://www.w3.org/2000/svg" xmlns:xlink="http://www.w3.org/1999/xlink" width="24px" height="24px" viewBox="0 0 24 24" version="1.1">
<g id="surface1">
<path style=" stroke:none;fill-rule:evenodd;fill:rgb(100%,100%,100%);fill-opacity:1;" d="M 6.246094 9.734375 C 5.175781 9.734375 4.300781 10.609375 4.300781 11.679688 C 4.300781 12.75 5.175781 13.628906 6.246094 13.628906 C 7.320312 13.628906 8.195312 12.75 8.195312 11.679688 C 8.195312 10.609375 7.320312 9.734375 6.246094 9.734375 Z M 17.929688 9.734375 C 16.859375 9.734375 15.980469 10.609375 15.980469 11.679688 C 15.980469 12.75 16.859375 13.628906 17.929688 13.628906 C 19 13.628906 19.875 12.75 19.875 11.679688 C 19.875 10.609375 19 9.734375 17.929688 9.734375 Z M 10.140625 11.679688 C 10.140625 10.609375 11.015625 9.734375 12.089844 9.734375 C 13.160156 9.734375 14.035156 10.609375 14.035156 11.679688 C 14.035156 12.75 13.160156 13.628906 12.089844 13.628906 C 11.015625 13.628906 10.140625 12.75 10.140625 11.679688 Z M 10.140625 11.679688 "/>
</g>
</svg>
