<?xml version="1.0" encoding="UTF-8"?>
<svg xmlns="http://www.w3.org/2000/svg" xmlns:xlink="http://www.w3.org/1999/xlink" width="24px" height="24px" viewBox="0 0 24 24" version="1.1">
<g id="surface1">
<path style=" stroke:none;fill-rule:evenodd;fill:rgb(100%,100%,100%);fill-opacity:1;" d="M 11.75 3.894531 C 9.597656 3.894531 7.855469 5.636719 7.855469 7.789062 C 7.855469 9.9375 9.597656 11.679688 11.75 11.679688 C 13.898438 11.679688 15.640625 9.9375 15.640625 7.789062 C 15.640625 5.636719 13.898438 3.894531 11.75 3.894531 Z M 13.695312 7.789062 C 13.695312 6.714844 12.820312 5.839844 11.75 5.839844 C 10.679688 5.839844 9.800781 6.714844 9.800781 7.789062 C 9.800781 8.859375 10.679688 9.734375 11.75 9.734375 C 12.820312 9.734375 13.695312 8.859375 13.695312 7.789062 Z M 17.589844 17.519531 C 17.394531 16.832031 14.375 15.574219 11.75 15.574219 C 9.128906 15.574219 6.132812 16.820312 5.910156 17.519531 Z M 3.960938 17.519531 C 3.960938 14.933594 9.148438 13.628906 11.75 13.628906 C 14.347656 13.628906 19.535156 14.933594 19.535156 17.519531 L 19.535156 19.46875 L 3.960938 19.46875 Z M 3.960938 17.519531 "/>
</g>
</svg>
