<?xml version="1.0" encoding="UTF-8"?>
<svg xmlns="http://www.w3.org/2000/svg" xmlns:xlink="http://www.w3.org/1999/xlink" width="24px" height="24px" viewBox="0 0 24 24" version="1.1">
<g id="surface1">
<path style=" stroke:none;fill-rule:evenodd;fill:rgb(94.901961%,94.901961%,94.901961%);fill-opacity:1;" d="M 11.898438 3.894531 C 9.746094 3.894531 8.003906 5.636719 8.003906 7.789062 C 8.003906 9.9375 9.746094 11.679688 11.898438 11.679688 C 14.050781 11.679688 15.792969 9.9375 15.792969 7.789062 C 15.792969 5.636719 14.050781 3.894531 11.898438 3.894531 Z M 13.84375 7.789062 C 13.84375 6.714844 12.96875 5.839844 11.898438 5.839844 C 10.828125 5.839844 9.953125 6.714844 9.953125 7.789062 C 9.953125 8.859375 10.828125 9.734375 11.898438 9.734375 C 12.96875 9.734375 13.84375 8.859375 13.84375 7.789062 Z M 17.738281 17.519531 C 17.542969 16.832031 14.527344 15.574219 11.898438 15.574219 C 9.28125 15.574219 6.28125 16.820312 6.058594 17.519531 Z M 4.109375 17.519531 C 4.109375 14.933594 9.300781 13.628906 11.898438 13.628906 C 14.496094 13.628906 19.683594 14.933594 19.683594 17.519531 L 19.683594 19.46875 L 4.109375 19.46875 Z M 4.109375 17.519531 "/>
</g>
</svg>
