<?xml version="1.0" encoding="UTF-8"?>
<svg xmlns="http://www.w3.org/2000/svg" xmlns:xlink="http://www.w3.org/1999/xlink" width="24px" height="24px" viewBox="0 0 24 24" version="1.1">
<g id="surface1">
<path style=" stroke:none;fill-rule:evenodd;fill:rgb(0%,0%,0%);fill-opacity:0.541176;" d="M 12 4 C 9.789062 4 8 5.789062 8 8 C 8 10.210938 9.789062 12 12 12 C 14.210938 12 16 10.210938 16 8 C 16 5.789062 14.210938 4 12 4 Z M 14 8 C 14 6.898438 13.101562 6 12 6 C 10.898438 6 10 6.898438 10 8 C 10 9.101562 10.898438 10 12 10 C 13.101562 10 14 9.101562 14 8 Z M 18 18 C 17.800781 17.289062 14.699219 16 12 16 C 9.308594 16 6.230469 17.28125 6 18 Z M 4 18 C 4 15.339844 9.328125 14 12 14 C 14.671875 14 20 15.339844 20 18 L 20 20 L 4 20 Z M 4 18 "/>
</g>
</svg>
