<?xml version="1.0" encoding="UTF-8"?>
<svg xmlns="http://www.w3.org/2000/svg" xmlns:xlink="http://www.w3.org/1999/xlink" width="24px" height="24px" viewBox="0 0 24 24" version="1.1">
<g id="surface1">
<path style=" stroke:none;fill-rule:evenodd;fill:rgb(18.431373%,50.196078%,92.941176%);fill-opacity:1;" d="M 12.078125 0 C 8.902344 0 6.328125 2.570312 6.328125 5.746094 C 6.328125 8.921875 8.902344 11.496094 12.078125 11.496094 C 15.253906 11.496094 17.824219 8.921875 17.824219 5.746094 C 17.824219 2.570312 15.253906 0 12.078125 0 Z M 14.949219 5.746094 C 14.949219 4.167969 13.65625 2.875 12.078125 2.875 C 10.496094 2.875 9.203125 4.167969 9.203125 5.746094 C 9.203125 7.328125 10.496094 8.621094 12.078125 8.621094 C 13.65625 8.621094 14.949219 7.328125 14.949219 5.746094 Z M 20.699219 20.117188 C 20.410156 19.097656 15.957031 17.242188 12.078125 17.242188 C 8.210938 17.242188 3.785156 19.082031 3.457031 20.117188 Z M 0.582031 20.117188 C 0.582031 16.292969 8.242188 14.371094 12.078125 14.371094 C 15.914062 14.371094 23.570312 16.292969 23.570312 20.117188 L 23.570312 22.992188 L 0.582031 22.992188 Z M 0.582031 20.117188 "/>
</g>
</svg>
