<?xml version="1.0" encoding="UTF-8"?>
<svg xmlns="http://www.w3.org/2000/svg" xmlns:xlink="http://www.w3.org/1999/xlink" width="24px" height="24px" viewBox="0 0 24 24" version="1.1">
<g id="surface1">
<path style=" stroke:none;fill-rule:evenodd;fill:rgb(53.333333%,52.156863%,100%);fill-opacity:1;" d="M 16.117188 1.945312 L 3.464844 1.945312 C 2.929688 1.945312 2.488281 2.382812 2.488281 2.921875 L 2.488281 16.546875 L 6.382812 12.652344 L 16.117188 12.652344 C 16.652344 12.652344 17.089844 12.214844 17.089844 11.679688 L 17.089844 2.921875 C 17.089844 2.382812 16.652344 1.945312 16.117188 1.945312 Z M 15.144531 3.894531 L 15.144531 10.707031 L 5.574219 10.707031 L 5 11.28125 L 4.4375 11.847656 L 4.4375 3.894531 Z M 19.039062 5.839844 L 20.984375 5.839844 C 21.519531 5.839844 21.957031 6.277344 21.957031 6.8125 L 21.957031 21.414062 L 18.066406 17.519531 L 7.355469 17.519531 C 6.820312 17.519531 6.382812 17.082031 6.382812 16.546875 L 6.382812 14.601562 L 19.039062 14.601562 Z M 19.039062 5.839844 "/>
</g>
</svg>
