<?xml version="1.0" encoding="UTF-8"?>
<svg xmlns="http://www.w3.org/2000/svg" xmlns:xlink="http://www.w3.org/1999/xlink" width="24px" height="24px" viewBox="0 0 24 24" version="1.1">
<g id="surface1">
<path style=" stroke:none;fill-rule:evenodd;fill:rgb(100%,100%,100%);fill-opacity:1;" d="M 15.980469 1.945312 L 3.328125 1.945312 C 2.792969 1.945312 2.355469 2.382812 2.355469 2.921875 L 2.355469 16.546875 L 6.246094 12.652344 L 15.980469 12.652344 C 16.515625 12.652344 16.957031 12.214844 16.957031 11.679688 L 16.957031 2.921875 C 16.957031 2.382812 16.515625 1.945312 15.980469 1.945312 Z M 15.007812 3.894531 L 15.007812 10.707031 L 5.441406 10.707031 L 4.300781 11.847656 L 4.300781 3.894531 Z M 18.902344 5.839844 L 20.847656 5.839844 C 21.382812 5.839844 21.824219 6.277344 21.824219 6.8125 L 21.824219 21.414062 L 17.929688 17.519531 L 7.222656 17.519531 C 6.6875 17.519531 6.246094 17.082031 6.246094 16.546875 L 6.246094 14.601562 L 18.902344 14.601562 Z M 18.902344 5.839844 "/>
</g>
</svg>
