<?xml version="1.0" encoding="UTF-8"?>
<svg xmlns="http://www.w3.org/2000/svg" xmlns:xlink="http://www.w3.org/1999/xlink" width="24px" height="24px" viewBox="0 0 24 24" version="1.1">
<g id="surface1">
<path style=" stroke:none;fill-rule:evenodd;fill:rgb(18.431373%,50.196078%,92.941176%);fill-opacity:1;" d="M 11.808594 1.945312 C 6.433594 1.945312 2.082031 6.308594 2.082031 11.679688 C 2.082031 17.054688 6.433594 21.414062 11.808594 21.414062 C 17.191406 21.414062 21.550781 17.054688 21.550781 11.679688 C 21.550781 6.308594 17.191406 1.945312 11.808594 1.945312 Z M 11.816406 19.46875 C 7.515625 19.46875 4.03125 15.984375 4.03125 11.679688 C 4.03125 7.378906 7.515625 3.894531 11.816406 3.894531 C 16.121094 3.894531 19.605469 7.378906 19.605469 11.679688 C 19.605469 15.984375 16.121094 19.46875 11.816406 19.46875 Z M 10.84375 6.8125 L 12.304688 6.8125 L 12.304688 11.925781 L 16.683594 14.523438 L 15.953125 15.71875 L 10.84375 12.652344 Z M 10.84375 6.8125 "/>
</g>
</svg>
