<?xml version="1.0" encoding="UTF-8"?>
<svg xmlns="http://www.w3.org/2000/svg" xmlns:xlink="http://www.w3.org/1999/xlink" width="24px" height="23px" viewBox="0 0 23 23" version="1.1">
<g id="surface1">
<path style=" stroke:none;fill-rule:evenodd;fill:rgb(94.901961%,94.901961%,94.901961%);fill-opacity:1;" d="M 15.226562 14.082031 L 16.207031 14.082031 L 22.394531 20.480469 L 20.546875 22.386719 L 14.347656 16 L 14.347656 14.988281 L 14.011719 14.632812 C 12.597656 15.886719 10.761719 16.640625 8.765625 16.640625 C 4.316406 16.640625 0.707031 12.914062 0.707031 8.320312 C 0.707031 3.726562 4.316406 0 8.765625 0 C 13.21875 0 16.828125 3.726562 16.828125 8.320312 C 16.828125 10.382812 16.09375 12.277344 14.878906 13.734375 Z M 3.1875 8.320312 C 3.1875 11.507812 5.679688 14.082031 8.765625 14.082031 C 11.855469 14.082031 14.347656 11.507812 14.347656 8.320312 C 14.347656 5.132812 11.855469 2.558594 8.765625 2.558594 C 5.679688 2.558594 3.1875 5.132812 3.1875 8.320312 Z M 3.1875 8.320312 "/>
</g>
</svg>
