<?xml version="1.0" encoding="UTF-8"?>
<svg xmlns="http://www.w3.org/2000/svg" xmlns:xlink="http://www.w3.org/1999/xlink" width="24px" height="22px" viewBox="0 0 23 22" version="1.1">
<g id="surface1">
<path style=" stroke:none;fill-rule:evenodd;fill:rgb(20%,20%,20%);fill-opacity:1;" d="M 14.527344 13.835938 L 15.488281 13.835938 L 21.542969 20.125 L 19.734375 22 L 13.667969 15.722656 L 13.667969 14.730469 L 13.339844 14.378906 C 11.953125 15.609375 10.15625 16.351562 8.203125 16.351562 C 3.847656 16.351562 0.3125 12.691406 0.3125 8.175781 C 0.3125 3.660156 3.847656 0 8.203125 0 C 12.5625 0 16.09375 3.660156 16.09375 8.175781 C 16.09375 10.203125 15.378906 12.0625 14.1875 13.496094 Z M 2.742188 8.175781 C 2.742188 11.308594 5.179688 13.835938 8.203125 13.835938 C 11.226562 13.835938 13.667969 11.308594 13.667969 8.175781 C 13.667969 5.042969 11.226562 2.515625 8.203125 2.515625 C 5.179688 2.515625 2.742188 5.042969 2.742188 8.175781 Z M 2.742188 8.175781 "/>
</g>
</svg>
