<?xml version="1.0" encoding="UTF-8"?>
<svg xmlns="http://www.w3.org/2000/svg" xmlns:xlink="http://www.w3.org/1999/xlink" width="24px" height="24px" viewBox="0 0 24 23" version="1.1">
<g id="surface1">
<path style=" stroke:none;fill-rule:evenodd;fill:rgb(100%,100%,100%);fill-opacity:1;" d="M 15.808594 14.082031 L 16.832031 14.082031 L 23.289062 20.480469 L 21.363281 22.386719 L 14.890625 16 L 14.890625 14.988281 L 14.542969 14.632812 C 13.066406 15.886719 11.152344 16.640625 9.070312 16.640625 C 4.421875 16.640625 0.65625 12.914062 0.65625 8.320312 C 0.65625 3.726562 4.421875 0 9.070312 0 C 13.714844 0 17.480469 3.726562 17.480469 8.320312 C 17.480469 10.382812 16.714844 12.277344 15.449219 13.734375 Z M 3.246094 8.320312 C 3.246094 11.507812 5.847656 14.082031 9.070312 14.082031 C 12.289062 14.082031 14.890625 11.507812 14.890625 8.320312 C 14.890625 5.132812 12.289062 2.558594 9.070312 2.558594 C 5.847656 2.558594 3.246094 5.132812 3.246094 8.320312 Z M 3.246094 8.320312 "/>
</g>
</svg>
